<svg width="200" height="100" viewBox="0 0 200 100" fill="none" xmlns="http://www.w3.org/2000/svg">
  <!-- Beyaz arka plan daire -->
  <circle cx="60" cy="50" r="45" fill="white" stroke="#e5e7eb" stroke-width="2"/>
  
  <!-- Mavi B harfi ve buğday motifleri -->
  <g transform="translate(25, 15)">
    <!-- B harfi -->
    <path d="M15 10h20v6H20v8h12v6H20v8h15v6H15V10z" fill="#1e40af"/>
    
    <!-- Buğday başakları (stilize edilmiş) -->
    <path d="M25 5c0-2 2-4 4-4s4 2 4 4c0 2-2 4-4 4s-4-2-4-4z" fill="#fbbf24"/>
    <path d="M35 8c0-1.5 1.5-3 3-3s3 1.5 3 3c0 1.5-1.5 3-3 3s-3-1.5-3-3z" fill="#fbbf24"/>
    <path d="M45 12c0-1 1-2 2-2s2 1 2 2c0 1-1 2-2 2s-2-1-2-2z" fill="#fbbf24"/>
  </g>
  
  <!-- BAĞCILAR BELEDİYESİ yazısı -->
  <text x="120" y="35" font-family="Arial, sans-serif" font-size="14" font-weight="bold" fill="#1e40af">BAĞCILAR</text>
  <text x="120" y="55" font-family="Arial, sans-serif" font-size="14" font-weight="bold" fill="#1e40af">BELEDİYESİ</text>
  
  <!-- Dekoratif çizgiler -->
  <line x1="110" y1="65" x2="180" y2="65" stroke="#1e40af" stroke-width="2"/>
  <line x1="110" y1="70" x2="160" y2="70" stroke="#1e40af" stroke-width="1"/>
</svg> 