<?xml version="1.0" standalone="no"?>
<!DOCTYPE svg PUBLIC "-//W3C//DTD SVG 20010904//EN"
 "http://www.w3.org/TR/2001/REC-SVG-20010904/DTD/svg10.dtd">
<svg version="1.0" xmlns="http://www.w3.org/2000/svg"
 width="600.000000pt" height="600.000000pt" viewBox="0 0 600.000000 600.000000"
 preserveAspectRatio="xMidYMid meet">

<g transform="translate(0.000000,600.000000) scale(0.100000,-0.100000)"
fill="#000000" stroke="none">
<path d="M3498 5603 l-148 -85 0 -919 c0 -734 3 -919 13 -913 6 5 59 39 117
77 165 108 329 185 430 202 268 46 478 -25 617 -209 134 -178 154 -356 68
-613 l-33 -98 57 61 c126 137 171 252 178 454 5 116 2 148 -16 219 -28 112
-80 201 -166 286 -85 83 -185 142 -315 186 -80 27 -114 33 -215 36 -148 6
-236 -11 -352 -66 l-83 -40 -2 753 -3 753 -147 -84z"/>
<path d="M3053 5363 l-153 -86 0 -903 c0 -497 2 -904 5 -904 3 0 73 34 155 75
l150 75 0 915 c0 503 -1 915 -2 915 -2 -1 -72 -39 -155 -87z"/>
<path d="M2706 5165 c-144 -90 -271 -191 -356 -283 -176 -190 -299 -401 -349
-602 -77 -306 -64 -591 45 -960 20 -69 41 -141 47 -161 10 -34 6 -44 -72 -192
l-83 -157 47 -88 c26 -48 50 -91 54 -95 4 -4 42 81 83 189 l75 196 -23 42
c-53 96 -140 405 -168 597 -21 138 -21 368 0 490 19 112 70 271 118 366 120
240 368 498 616 643 39 23 70 45 70 50 0 23 -24 15 -104 -35z"/>
<path d="M2518 5147 c-107 -80 -258 -217 -314 -285 -168 -203 -276 -431 -320
-677 -27 -153 -26 -462 3 -615 39 -204 89 -381 111 -388 18 -6 15 26 -8 94
-32 92 -78 336 -90 479 -47 539 164 1010 594 1330 97 71 127 105 94 105 -7 0
-39 -20 -70 -43z"/>
<path d="M2201 4988 c-213 -217 -340 -464 -398 -774 -28 -153 -26 -543 5 -713
28 -156 40 -201 54 -201 12 0 11 3 -24 225 -18 114 -22 182 -22 365 0 241 9
323 59 494 62 213 223 474 375 608 58 51 74 78 46 78 -7 0 -50 -37 -95 -82z"/>
<path d="M1970 4829 c-126 -188 -185 -320 -240 -535 -63 -242 -75 -501 -35
-769 8 -55 15 -103 15 -107 0 -5 7 -8 16 -8 14 0 16 7 10 48 -38 261 -43 389
-21 572 40 335 145 611 322 843 40 52 47 77 23 77 -5 0 -45 -54 -90 -121z"/>
<path d="M1723 4613 c-89 -164 -147 -339 -172 -517 -14 -98 -14 -335 -1 -446
19 -157 52 -311 67 -317 29 -11 31 14 7 117 -37 163 -50 370 -36 548 19 230
62 379 166 578 31 59 53 111 50 115 -14 24 -37 1 -81 -78z"/>
<path d="M1566 4485 c-31 -73 -86 -255 -108 -355 -19 -92 -22 -134 -23 -340 0
-251 4 -280 56 -454 41 -135 74 -206 95 -206 20 0 18 10 -30 146 -56 161 -77
278 -83 462 -8 231 26 442 106 662 17 46 31 92 31 102 0 31 -29 20 -44 -17z"/>
<path d="M1376 4212 c-15 -25 -47 -189 -56 -295 -8 -86 -8 -154 0 -245 19
-228 53 -359 155 -600 36 -87 51 -112 66 -112 26 0 25 9 -20 103 -76 161 -139
390 -163 595 -13 114 -2 290 29 430 9 42 17 88 17 101 1 25 -18 40 -28 23z"/>
<path d="M1223 3873 c-5 -10 -8 -94 -7 -188 0 -184 10 -248 66 -425 40 -125
105 -280 129 -304 17 -18 19 -18 25 -3 3 10 -3 39 -14 65 -11 26 -34 79 -50
117 -77 178 -115 369 -116 589 -1 117 -5 161 -14 164 -6 2 -15 -5 -19 -15z"/>
<path d="M3943 3789 c-101 -13 -106 -21 -33 -60 92 -49 154 -109 192 -187 32
-64 33 -71 33 -187 0 -117 -1 -122 -36 -195 -50 -104 -131 -190 -223 -235 -98
-49 -224 -71 -323 -57 -139 19 -266 101 -318 205 -24 48 -25 59 -25 214 0 90
-3 163 -6 163 -3 0 -73 -37 -154 -82 l-149 -83 -1 -357 c0 -197 4 -358 9 -358
4 0 74 32 154 70 l145 70 74 -52 c144 -104 255 -135 443 -125 170 10 307 57
460 160 92 62 214 191 258 274 113 216 99 516 -32 666 -103 117 -291 180 -468
156z"/>
<path d="M3493 3588 l-143 -80 0 -132 c0 -191 34 -291 125 -375 121 -111 241
-107 412 15 60 43 65 49 43 52 -119 12 -209 64 -253 146 -20 38 -22 57 -25
249 -2 114 -6 207 -10 207 -4 -1 -71 -37 -149 -82z"/>
<path d="M1174 3345 c-9 -22 49 -240 90 -341 32 -78 208 -363 225 -364 3 -1
113 -11 244 -23 130 -13 237 -21 237 -18 0 3 -23 46 -50 96 l-51 91 -251 54
c-244 53 -252 56 -270 85 -32 52 -80 186 -111 313 -20 80 -35 122 -44 122 -8
0 -16 -7 -19 -15z"/>
<path d="M1692 3124 l3 -198 86 -27 87 -26 31 71 c17 39 31 76 31 82 0 13
-216 288 -231 292 -6 3 -8 -67 -7 -194z"/>
<path d="M2650 3222 c-22 -7 -40 -33 -40 -59 0 -23 32 -63 50 -63 18 0 10 18
-10 23 -25 6 -28 58 -5 77 20 16 60 -2 123 -56 l42 -37 -2 59 c-1 50 -2 52 -5
17 -2 -24 -8 -43 -12 -43 -4 0 -22 16 -41 35 -35 36 -75 55 -100 47z"/>
<path d="M2645 3058 c-41 -23 -47 -66 -15 -98 38 -38 100 -18 103 33 1 15 4
27 6 27 2 0 19 -12 38 -26 19 -14 36 -24 39 -21 8 7 -70 66 -110 82 -41 18
-36 17 -61 3z m64 -22 c7 -8 11 -27 9 -43 -3 -25 -7 -28 -42 -28 -30 0 -40 5
-47 21 -16 46 50 87 80 50z"/>
<path d="M2247 2913 c-13 -21 -137 -343 -137 -356 0 -14 117 -134 123 -126 3
2 31 83 63 181 l58 176 -27 39 c-50 72 -74 97 -80 86z"/>
<path d="M2626 2878 c-21 -30 -20 -54 4 -78 38 -38 100 -18 103 33 1 15 4 27
6 27 2 0 19 -11 37 -25 18 -14 36 -25 40 -25 14 0 -19 30 -65 59 -58 37 -103
40 -125 9z m83 -2 c7 -8 11 -27 9 -43 -3 -25 -7 -28 -42 -28 -30 0 -40 5 -47
21 -16 46 50 87 80 50z"/>
<path d="M2621 2698 c1 -17 3 -18 6 -6 4 14 20 18 96 21 l92 3 -97 2 c-96 2
-98 2 -97 -20z"/>
<path d="M2363 2543 l-59 -168 95 -59 c53 -32 103 -59 111 -60 12 -1 18 32 31
164 l17 165 -61 63 c-34 34 -64 62 -68 62 -4 0 -33 -75 -66 -167z"/>
<path d="M1568 2524 c6 -11 49 -57 95 -103 l85 -84 211 18 c242 21 231 9 111
115 l-65 58 -223 7 c-217 7 -224 7 -214 -11z"/>
<path d="M2619 2377 c-8 -84 -14 -156 -14 -161 0 -5 42 -28 93 -52 l92 -43 0
149 0 148 -67 49 c-38 27 -73 52 -79 56 -8 4 -15 -41 -25 -146z"/>
<path d="M4525 2493 c-63 -34 -244 -106 -350 -138 -60 -19 -103 -34 -95 -35
33 -1 92 -22 110 -40 18 -18 20 -18 75 15 30 19 53 30 50 25 -3 -6 -26 -22
-51 -36 -33 -20 -51 -39 -69 -79 -14 -29 -48 -83 -77 -120 -58 -77 -53 -76 52
9 106 87 248 224 330 321 85 101 89 113 25 78z"/>
<path d="M2850 2367 c1 -34 28 -268 31 -271 7 -6 211 -57 214 -54 5 5 -100
277 -111 287 -5 5 -37 21 -71 34 l-63 26 0 -22z"/>
<path d="M3060 2314 c0 -2 30 -66 67 -144 l66 -140 109 0 c59 0 108 3 108 6 0
3 -43 60 -96 127 l-96 122 -79 16 c-43 9 -79 15 -79 13z"/>
<path d="M2005 2295 c-77 -7 -152 -15 -167 -17 -26 -3 -20 -10 77 -86 l105
-83 197 31 c109 17 208 34 221 38 20 6 8 16 -85 70 -124 71 -109 69 -348 47z"/>
<path d="M3886 2260 l-50 -5 40 -26 c81 -54 78 -53 162 -23 l76 28 -39 12
c-52 15 -128 20 -189 14z"/>
<path d="M3411 2153 c46 -60 83 -108 83 -109 1 0 37 7 81 15 l79 16 -101 82
c-72 59 -114 85 -145 92 -85 20 -85 18 3 -96z"/>
<path d="M3566 2231 c-7 -10 143 -131 162 -131 8 0 45 10 84 21 l70 21 -74 49
c-72 49 -74 49 -155 49 -45 0 -84 -4 -87 -9z"/>
<path d="M4041 2166 c-72 -31 -75 -34 -151 -141 -43 -61 -76 -111 -75 -113 7
-7 68 31 125 79 62 51 201 215 178 208 -2 0 -36 -15 -77 -33z"/>
<path d="M2316 2094 c-120 -23 -220 -45 -222 -47 -3 -2 50 -34 118 -71 l122
-67 185 67 c102 36 197 71 211 76 23 9 17 13 -70 48 -52 22 -102 39 -110 38
-8 0 -113 -20 -234 -44z"/>
<path d="M3810 2072 c-78 -34 -94 -46 -194 -149 -60 -62 -107 -115 -105 -118
3 -2 56 15 118 38 103 39 116 47 145 88 83 115 127 179 124 179 -1 -1 -41 -17
-88 -38z"/>
<path d="M2617 1953 c-109 -47 -196 -88 -193 -90 2 -2 65 -19 140 -37 l135
-33 166 87 c91 48 170 91 176 97 7 7 -22 18 -89 36 -54 15 -107 27 -118 26
-10 -1 -108 -39 -217 -86z"/>
<path d="M3568 2006 c-80 -19 -101 -30 -257 -136 -94 -63 -168 -116 -166 -118
8 -8 232 22 255 34 23 13 271 245 260 243 -3 -1 -44 -11 -92 -23z"/>
<path d="M2973 1877 c-95 -51 -175 -96 -179 -100 -4 -4 10 -7 32 -8 21 0 74
-4 118 -8 l78 -7 187 108 186 108 -125 -1 -125 0 -172 -92z"/>
<path d="M2290 1580 c0 -6 7 -24 15 -41 42 -79 193 -57 195 29 0 30 -23 28
-55 -4 -21 -21 -32 -25 -58 -20 -18 3 -38 15 -46 26 -14 21 -51 28 -51 10z"/>
<path d="M2285 1406 c-154 -73 -199 -261 -96 -403 68 -94 229 -126 345 -69 86
42 123 110 129 236 l2 35 -132 3 -133 3 0 -56 0 -55 65 0 c67 0 74 -5 55 -41
-27 -50 -144 -67 -194 -28 -38 30 -56 71 -56 129 0 67 21 115 62 140 53 32
129 22 167 -24 11 -13 19 -12 67 12 30 14 54 32 54 38 0 17 -57 64 -105 85
-60 28 -166 25 -230 -5z"/>
<path d="M2875 1411 c-200 -91 -198 -403 4 -489 45 -19 144 -21 194 -3 l37 13
0 69 c0 38 -2 69 -5 69 -3 0 -18 -9 -33 -20 -62 -46 -144 -29 -189 39 -38 56
-26 149 25 194 45 40 133 38 178 -4 l24 -22 0 72 0 72 -35 15 c-48 20 -151 18
-200 -5z"/>
<path d="M1180 1169 l0 -251 153 4 c129 2 157 6 184 23 71 43 84 153 24 207
-17 15 -38 28 -46 28 -8 0 -15 5 -15 10 0 6 6 10 13 10 8 0 23 10 35 23 52 56
32 144 -40 177 -36 16 -66 20 -175 20 l-133 0 0 -251z m238 139 c19 -19 15
-66 -7 -78 -11 -5 -38 -10 -60 -10 l-41 0 0 50 0 50 48 0 c26 0 53 -5 60 -12z
m16 -194 c23 -22 20 -71 -3 -84 -11 -5 -42 -10 -70 -10 l-51 0 0 55 0 55 54 0
c36 0 60 -5 70 -16z"/>
<path d="M1780 1416 c0 -2 -38 -113 -85 -247 -47 -134 -85 -245 -85 -247 0 -2
30 -2 67 0 l66 3 15 43 14 42 98 0 97 0 13 -45 13 -45 67 0 67 0 -53 153 c-29
83 -68 196 -86 250 l-32 97 -88 0 c-48 0 -88 -2 -88 -4z m126 -201 c17 -57 29
-107 26 -110 -3 -3 -34 -5 -70 -5 -56 0 -64 2 -59 18 31 111 63 210 66 206 3
-3 19 -52 37 -109z"/>
<path d="M3230 1170 l0 -250 70 0 70 0 0 250 0 250 -70 0 -70 0 0 -250z"/>
<path d="M3480 1170 l0 -250 155 0 155 0 0 55 0 55 -85 0 -85 0 0 195 0 195
-70 0 -70 0 0 -250z"/>
<path d="M4009 1393 c-23 -60 -159 -457 -159 -465 0 -4 29 -8 64 -8 l64 0 14
43 13 42 100 0 99 0 12 -40 11 -40 66 -3 c37 -2 67 -1 67 1 0 5 -154 451 -165
480 -6 14 -20 17 -91 17 -83 0 -85 -1 -95 -27z m161 -280 c0 -9 -20 -13 -66
-13 l-66 0 6 31 c3 17 18 69 33 117 l27 87 33 -105 c18 -58 33 -111 33 -117z"/>
<path d="M4420 1170 l0 -250 60 0 59 0 3 98 3 97 58 -97 58 -98 75 0 c57 0 73
3 68 13 -4 6 -30 46 -59 87 -28 41 -55 80 -59 87 -4 8 5 18 28 27 104 43 102
210 -4 264 -39 19 -60 22 -167 22 l-123 0 0 -250z m214 129 c26 -20 35 -61 18
-85 -12 -19 -49 -34 -81 -34 l-31 0 0 63 c0 35 3 67 7 70 13 14 61 6 87 -14z"/>
<path d="M3277 843 c-13 -12 -7 -51 9 -57 21 -8 20 -8 38 10 12 12 13 20 6 35
-10 19 -40 26 -53 12z"/>
<path d="M4724 835 c-14 -37 26 -69 53 -42 22 22 8 57 -23 57 -14 0 -27 -7
-30 -15z"/>
<path d="M4395 715 c-48 -17 -72 -44 -81 -90 -13 -71 7 -94 129 -144 38 -16
47 -24 47 -45 0 -26 -32 -56 -61 -56 -9 0 -33 11 -53 25 -20 14 -38 25 -40 25
-2 0 -13 -15 -24 -34 -23 -39 -20 -45 41 -71 113 -47 227 14 227 121 0 59 -27
88 -105 114 -67 22 -88 47 -65 75 14 17 72 20 100 5 16 -9 22 -5 35 19 20 39
20 38 -17 50 -63 19 -93 20 -133 6z"/>
<path d="M1180 521 l0 -201 105 0 c115 0 162 13 189 51 35 50 12 129 -42 150
l-26 10 32 25 c25 20 32 33 32 59 0 77 -31 94 -181 102 l-109 6 0 -202z m174
119 c38 -14 37 -66 -1 -81 -15 -5 -38 -9 -52 -7 -21 2 -27 9 -29 36 -2 19 -1
40 2 48 6 16 44 18 80 4z m30 -166 c40 -39 2 -87 -65 -82 l-44 3 -3 48 -3 47
50 0 c32 0 55 -6 65 -16z"/>
<path d="M1610 520 l0 -200 120 0 120 0 0 40 0 40 -70 0 -70 0 0 40 0 40 65 0
65 0 0 35 0 34 -62 3 -63 3 -3 43 -3 42 70 0 71 0 0 40 0 40 -120 0 -120 0 0
-200z"/>
<path d="M2000 520 l0 -200 120 0 120 0 0 40 0 40 -70 0 -70 0 0 160 0 160
-50 0 -50 0 0 -200z"/>
<path d="M2360 520 l0 -200 120 0 120 0 0 40 0 40 -70 0 -70 0 0 40 0 40 65 0
65 0 0 35 0 34 -62 3 -63 3 -3 43 -3 42 70 0 71 0 0 40 0 40 -120 0 -120 0 0
-200z"/>
<path d="M2760 521 l0 -201 93 0 c108 0 155 11 197 47 45 37 62 78 63 148 1
47 -5 71 -24 105 -36 66 -87 88 -221 96 l-108 7 0 -202z m209 97 c29 -18 44
-53 44 -102 0 -76 -41 -116 -119 -116 l-34 0 0 121 0 122 45 -6 c24 -4 53 -12
64 -19z"/>
<path d="M3250 520 l0 -200 50 0 50 0 0 200 0 200 -50 0 -50 0 0 -200z"/>
<path d="M3460 716 c0 -3 32 -53 70 -112 l70 -108 0 -88 0 -88 45 0 45 0 0 90
0 91 63 97 c35 53 67 103 71 110 6 10 -5 12 -50 10 l-58 -3 -37 -69 -37 -69
-36 71 -36 72 -55 0 c-30 0 -55 -2 -55 -4z"/>
<path d="M3930 520 l0 -200 120 0 120 0 0 40 0 40 -70 0 -70 0 0 40 0 40 65 0
65 0 0 35 0 34 -62 3 -63 3 -3 43 -3 42 70 0 71 0 0 40 0 40 -120 0 -120 0 0
-200z"/>
<path d="M4700 520 l0 -200 50 0 50 0 0 200 0 200 -50 0 -50 0 0 -200z"/>
</g>
</svg>
